<svg xmlns="http://www.w3.org/2000/svg" version="1.1" width="508" height="170" viewBox="0 0 508 170" role="img" aria-label="S1 named-subset install: cold vs warm by tool">
<g transform="translate(78,8)" font-family='-apple-system,BlinkMacSystemFont,"Segoe UI",Helvetica,Arial,sans-serif,"Apple Color Emoji","Segoe UI Emoji"'>
<line x1="0.000" y1="0" x2="0.000" y2="124.0" stroke="rgba(127,127,127,0.25)" stroke-width="1"/>
<text x="0.000" y="138.0" text-anchor="middle" font-size="12px" fill="#8b949e">0s</text>
<line x1="80.000" y1="0" x2="80.000" y2="124.0" stroke="rgba(127,127,127,0.25)" stroke-width="1"/>
<text x="80.000" y="138.0" text-anchor="middle" font-size="12px" fill="#8b949e">2s</text>
<line x1="160.000" y1="0" x2="160.000" y2="124.0" stroke="rgba(127,127,127,0.25)" stroke-width="1"/>
<text x="160.000" y="138.0" text-anchor="middle" font-size="12px" fill="#8b949e">4s</text>
<line x1="240.000" y1="0" x2="240.000" y2="124.0" stroke="rgba(127,127,127,0.25)" stroke-width="1"/>
<text x="240.000" y="138.0" text-anchor="middle" font-size="12px" fill="#8b949e">6s</text>
<line x1="320.000" y1="0" x2="320.000" y2="124.0" stroke="rgba(127,127,127,0.25)" stroke-width="1"/>
<text x="320.000" y="138.0" text-anchor="middle" font-size="12px" fill="#8b949e">8s</text>
<line x1="400.000" y1="0" x2="400.000" y2="124.0" stroke="rgba(127,127,127,0.25)" stroke-width="1"/>
<text x="400.000" y="138.0" text-anchor="middle" font-size="12px" fill="#8b949e">10s</text>
<text x="-10" y="15.00" text-anchor="end" font-size="12px" fill="#8b949e" font-weight="bold">qvr</text>
<rect x="0" y="0.00" width="52.080" height="10" fill="#1E7B34"/>
<text x="57.080" y="8.50" text-anchor="start" font-size="11px" fill="#8b949e">1.30s</text>
<rect x="0" y="12.00" width="0.840" height="10" fill="#32CD32"/>
<text x="5.840" y="20.50" text-anchor="start" font-size="11px" fill="#8b949e" font-weight="bold">0.02s</text>
<text x="-10" y="49.00" text-anchor="end" font-size="12px" fill="#8b949e">skillshare</text>
<rect x="0" y="34.00" width="64.760" height="10" fill="#1E7B34"/>
<text x="69.760" y="42.50" text-anchor="start" font-size="11px" fill="#8b949e">1.62s</text>
<rect x="0" y="46.00" width="17.680" height="10" fill="#32CD32"/>
<text x="22.680" y="54.50" text-anchor="start" font-size="11px" fill="#8b949e">0.44s</text>
<text x="-10" y="83.00" text-anchor="end" font-size="12px" fill="#8b949e">apm</text>
<rect x="0" y="68.00" width="130.200" height="10" fill="#1E7B34"/>
<text x="135.200" y="76.50" text-anchor="start" font-size="11px" fill="#8b949e">3.25s</text>
<rect x="0" y="80.00" width="78.720" height="10" fill="#32CD32"/>
<text x="83.720" y="88.50" text-anchor="start" font-size="11px" fill="#8b949e">1.97s</text>
<text x="-10" y="117.00" text-anchor="end" font-size="12px" fill="#8b949e">asm</text>
<rect x="0" y="102.00" width="332.280" height="10" fill="#1E7B34"/>
<text x="337.280" y="110.50" text-anchor="start" font-size="11px" fill="#8b949e">8.31s</text>
<rect x="0" y="114.00" width="317.720" height="10" fill="#32CD32"/>
<text x="322.720" y="122.50" text-anchor="start" font-size="11px" fill="#8b949e">7.94s</text>
<rect x="0" y="148.0" width="11" height="10" fill="#1E7B34"/>
<text x="16" y="157.0" font-size="11px" fill="#8b949e">cold (first install)</text>
<rect x="135" y="148.0" width="11" height="10" fill="#32CD32"/>
<text x="151" y="157.0" font-size="11px" fill="#8b949e">warm (cached)</text>
</g></svg>
